<mxfile host="app.diagrams.net" modified="2023-10-13T03:55:11.126Z" agent="Mozilla/5.0 (Macintosh; Intel Mac OS X 10_15_7) AppleWebKit/537.36 (KHTML, like Gecko) Chrome/118.0.0.0 Safari/537.36" etag="jWJcZskBj6RzMrQL0mdp" version="22.0.4" type="github">
  <diagram id="C5RBs43oDa-KdzZeNtuy" name="Page-1">
    <mxGraphModel dx="2190" dy="1322" grid="1" gridSize="10" guides="1" tooltips="1" connect="1" arrows="1" fold="1" page="1" pageScale="1" pageWidth="1200" pageHeight="1920" math="0" shadow="0">
      <root>
        <mxCell id="WIyWlLk6GJQsqaUBKTNV-0" />
        <mxCell id="WIyWlLk6GJQsqaUBKTNV-1" parent="WIyWlLk6GJQsqaUBKTNV-0" />
        <mxCell id="DzJdTs3C_Hkm3qkHKdO4-4" value="User" style="swimlane;fontStyle=1;align=center;verticalAlign=top;childLayout=stackLayout;horizontal=1;startSize=26;horizontalStack=0;resizeParent=1;resizeParentMax=0;resizeLast=0;collapsible=1;marginBottom=0;whiteSpace=wrap;html=1;" vertex="1" parent="WIyWlLk6GJQsqaUBKTNV-1">
          <mxGeometry x="410" y="150" width="160" height="420" as="geometry" />
        </mxCell>
        <mxCell id="DzJdTs3C_Hkm3qkHKdO4-5" value="- Id : Int&lt;span style=&quot;background-color: initial;&quot;&gt;&lt;br&gt;&lt;/span&gt;&lt;span style=&quot;background-color: initial;&quot;&gt;- email : String&lt;br&gt;&lt;/span&gt;-&amp;nbsp;profilePicture&amp;nbsp;: String&lt;span style=&quot;background-color: initial;&quot;&gt;&lt;br&gt;&lt;/span&gt;-&amp;nbsp;mobileNumber&amp;nbsp;: String&lt;span style=&quot;background-color: initial;&quot;&gt;&lt;br&gt;&lt;/span&gt;-&amp;nbsp;countryCode&amp;nbsp;: String&lt;span style=&quot;background-color: initial;&quot;&gt;&lt;br&gt;&lt;/span&gt;-&amp;nbsp;&lt;span style=&quot;background-color: initial;&quot;&gt;userType : Int&lt;br&gt;&lt;/span&gt;-&amp;nbsp;password&amp;nbsp;: String&lt;span style=&quot;background-color: initial;&quot;&gt;&lt;br&gt;&lt;/span&gt;-&amp;nbsp;dob&amp;nbsp;: String&lt;span style=&quot;background-color: initial;&quot;&gt;&lt;br&gt;&lt;/span&gt;-&amp;nbsp;gender&amp;nbsp;: String&lt;span style=&quot;background-color: initial;&quot;&gt;&lt;br&gt;&lt;/span&gt;-&amp;nbsp;addressId&amp;nbsp;: String&lt;span style=&quot;background-color: initial;&quot;&gt;&lt;br&gt;&lt;/span&gt;-&amp;nbsp;createdAt&amp;nbsp;: String&lt;span style=&quot;background-color: initial;&quot;&gt;&lt;br&gt;&lt;/span&gt;-&amp;nbsp;updatedAt&amp;nbsp;: String&lt;span style=&quot;background-color: initial;&quot;&gt;&lt;br&gt;&lt;/span&gt;-&amp;nbsp;OTP&amp;nbsp;: String&lt;span style=&quot;background-color: initial;&quot;&gt;&lt;br&gt;&lt;/span&gt;-&amp;nbsp;FCMToken&amp;nbsp;: String&lt;span style=&quot;background-color: initial;&quot;&gt;&lt;br&gt;&lt;/span&gt;-&amp;nbsp;authToken&amp;nbsp;: String&lt;span style=&quot;background-color: initial;&quot;&gt;&lt;br&gt;&lt;/span&gt;-&amp;nbsp;&lt;span style=&quot;background-color: initial;&quot;&gt;mobileId&lt;/span&gt;&amp;nbsp;: String&lt;span style=&quot;background-color: initial;&quot;&gt;&lt;br&gt;&lt;/span&gt;" style="text;strokeColor=none;fillColor=none;align=left;verticalAlign=top;spacingLeft=4;spacingRight=4;overflow=hidden;rotatable=0;points=[[0,0.5],[1,0.5]];portConstraint=eastwest;whiteSpace=wrap;html=1;" vertex="1" parent="DzJdTs3C_Hkm3qkHKdO4-4">
          <mxGeometry y="26" width="160" height="254" as="geometry" />
        </mxCell>
        <mxCell id="DzJdTs3C_Hkm3qkHKdO4-6" value="" style="line;strokeWidth=1;fillColor=none;align=left;verticalAlign=middle;spacingTop=-1;spacingLeft=3;spacingRight=3;rotatable=0;labelPosition=right;points=[];portConstraint=eastwest;strokeColor=inherit;" vertex="1" parent="DzJdTs3C_Hkm3qkHKdO4-4">
          <mxGeometry y="280" width="160" height="8" as="geometry" />
        </mxCell>
        <mxCell id="DzJdTs3C_Hkm3qkHKdO4-7" value="- getProfile()&amp;nbsp;&lt;br&gt;- editProfile()&lt;br&gt;- deleteUser()&lt;br&gt;- registerUser()&lt;br&gt;- forgotPassword()&lt;br&gt;- login()&lt;br&gt;- logout()&lt;br&gt;" style="text;strokeColor=none;fillColor=none;align=left;verticalAlign=top;spacingLeft=4;spacingRight=4;overflow=hidden;rotatable=0;points=[[0,0.5],[1,0.5]];portConstraint=eastwest;whiteSpace=wrap;html=1;" vertex="1" parent="DzJdTs3C_Hkm3qkHKdO4-4">
          <mxGeometry y="288" width="160" height="132" as="geometry" />
        </mxCell>
        <mxCell id="DzJdTs3C_Hkm3qkHKdO4-12" value="Address" style="swimlane;fontStyle=1;align=center;verticalAlign=top;childLayout=stackLayout;horizontal=1;startSize=26;horizontalStack=0;resizeParent=1;resizeParentMax=0;resizeLast=0;collapsible=1;marginBottom=0;whiteSpace=wrap;html=1;" vertex="1" parent="WIyWlLk6GJQsqaUBKTNV-1">
          <mxGeometry x="110" y="70" width="160" height="240" as="geometry" />
        </mxCell>
        <mxCell id="DzJdTs3C_Hkm3qkHKdO4-13" value="- Id : Int&lt;br&gt;&lt;span style=&quot;background-color: initial;&quot;&gt;- userId : Int&lt;br&gt;&lt;/span&gt;-&amp;nbsp;&lt;span style=&quot;background-color: initial;&quot;&gt;street1 : String&lt;br&gt;&lt;/span&gt;-&amp;nbsp;street2&amp;nbsp;: String&lt;span style=&quot;background-color: initial;&quot;&gt;&lt;br&gt;&lt;/span&gt;-&amp;nbsp;city&amp;nbsp;: String&lt;span style=&quot;background-color: initial;&quot;&gt;&lt;br&gt;&lt;/span&gt;-&amp;nbsp;province&amp;nbsp;: String&lt;span style=&quot;background-color: initial;&quot;&gt;&lt;br&gt;&lt;/span&gt;-&amp;nbsp;country&amp;nbsp;: String&lt;span style=&quot;background-color: initial;&quot;&gt;&lt;br&gt;&lt;/span&gt;&lt;span style=&quot;background-color: initial;&quot;&gt;- zipcode&lt;/span&gt;&amp;nbsp;: String&lt;span style=&quot;background-color: initial;&quot;&gt;&lt;br&gt;&lt;/span&gt;" style="text;strokeColor=none;fillColor=none;align=left;verticalAlign=top;spacingLeft=4;spacingRight=4;overflow=hidden;rotatable=0;points=[[0,0.5],[1,0.5]];portConstraint=eastwest;whiteSpace=wrap;html=1;" vertex="1" parent="DzJdTs3C_Hkm3qkHKdO4-12">
          <mxGeometry y="26" width="160" height="144" as="geometry" />
        </mxCell>
        <mxCell id="DzJdTs3C_Hkm3qkHKdO4-14" value="" style="line;strokeWidth=1;fillColor=none;align=left;verticalAlign=middle;spacingTop=-1;spacingLeft=3;spacingRight=3;rotatable=0;labelPosition=right;points=[];portConstraint=eastwest;strokeColor=inherit;" vertex="1" parent="DzJdTs3C_Hkm3qkHKdO4-12">
          <mxGeometry y="170" width="160" height="8" as="geometry" />
        </mxCell>
        <mxCell id="DzJdTs3C_Hkm3qkHKdO4-15" value="- getAddress()&lt;br&gt;- editAddress()&lt;br&gt;- deleteAddress()" style="text;strokeColor=none;fillColor=none;align=left;verticalAlign=top;spacingLeft=4;spacingRight=4;overflow=hidden;rotatable=0;points=[[0,0.5],[1,0.5]];portConstraint=eastwest;whiteSpace=wrap;html=1;" vertex="1" parent="DzJdTs3C_Hkm3qkHKdO4-12">
          <mxGeometry y="178" width="160" height="62" as="geometry" />
        </mxCell>
        <mxCell id="DzJdTs3C_Hkm3qkHKdO4-16" value="Chef" style="swimlane;fontStyle=1;align=center;verticalAlign=top;childLayout=stackLayout;horizontal=1;startSize=26;horizontalStack=0;resizeParent=1;resizeParentMax=0;resizeLast=0;collapsible=1;marginBottom=0;whiteSpace=wrap;html=1;" vertex="1" parent="WIyWlLk6GJQsqaUBKTNV-1">
          <mxGeometry x="695" y="150" width="190" height="210" as="geometry" />
        </mxCell>
        <mxCell id="DzJdTs3C_Hkm3qkHKdO4-17" value="&lt;span style=&quot;background-color: initial;&quot;&gt;- Id : Int&lt;br&gt;&lt;/span&gt;-&amp;nbsp;userId: Int&lt;span style=&quot;background-color: initial;&quot;&gt;&lt;br&gt;&lt;/span&gt;-&amp;nbsp;&lt;span style=&quot;background-color: initial;&quot;&gt;cuisines : List&amp;lt;String&amp;gt;&lt;br&gt;&lt;/span&gt;-&amp;nbsp;&lt;span style=&quot;background-color: initial;&quot;&gt;preferredCities&amp;nbsp;: List&amp;lt;String&amp;gt;&lt;br&gt;&lt;/span&gt;&lt;span style=&quot;background-color: initial;&quot;&gt;- scheduleId : Int&lt;/span&gt;&lt;span style=&quot;background-color: initial;&quot;&gt;&lt;br&gt;&lt;/span&gt;" style="text;strokeColor=none;fillColor=none;align=left;verticalAlign=top;spacingLeft=4;spacingRight=4;overflow=hidden;rotatable=0;points=[[0,0.5],[1,0.5]];portConstraint=eastwest;whiteSpace=wrap;html=1;" vertex="1" parent="DzJdTs3C_Hkm3qkHKdO4-16">
          <mxGeometry y="26" width="190" height="94" as="geometry" />
        </mxCell>
        <mxCell id="DzJdTs3C_Hkm3qkHKdO4-18" value="" style="line;strokeWidth=1;fillColor=none;align=left;verticalAlign=middle;spacingTop=-1;spacingLeft=3;spacingRight=3;rotatable=0;labelPosition=right;points=[];portConstraint=eastwest;strokeColor=inherit;" vertex="1" parent="DzJdTs3C_Hkm3qkHKdO4-16">
          <mxGeometry y="120" width="190" height="8" as="geometry" />
        </mxCell>
        <mxCell id="DzJdTs3C_Hkm3qkHKdO4-19" value="+ getChefCuisine()&lt;br&gt;+ getCities()&lt;br&gt;- editCuisine()&lt;br&gt;- editCities()&lt;br&gt;" style="text;strokeColor=none;fillColor=none;align=left;verticalAlign=top;spacingLeft=4;spacingRight=4;overflow=hidden;rotatable=0;points=[[0,0.5],[1,0.5]];portConstraint=eastwest;whiteSpace=wrap;html=1;" vertex="1" parent="DzJdTs3C_Hkm3qkHKdO4-16">
          <mxGeometry y="128" width="190" height="82" as="geometry" />
        </mxCell>
        <mxCell id="DzJdTs3C_Hkm3qkHKdO4-20" value="&lt;b style=&quot;border-color: var(--border-color);&quot;&gt;Schedule&lt;/b&gt;" style="swimlane;fontStyle=1;align=center;verticalAlign=top;childLayout=stackLayout;horizontal=1;startSize=26;horizontalStack=0;resizeParent=1;resizeParentMax=0;resizeLast=0;collapsible=1;marginBottom=0;whiteSpace=wrap;html=1;" vertex="1" parent="WIyWlLk6GJQsqaUBKTNV-1">
          <mxGeometry x="1000" y="30" width="160" height="250" as="geometry" />
        </mxCell>
        <mxCell id="DzJdTs3C_Hkm3qkHKdO4-21" value="&lt;span style=&quot;background-color: initial;&quot;&gt;- id : Int&lt;br&gt;&lt;/span&gt;&lt;span style=&quot;background-color: initial;&quot;&gt;&amp;nbsp;- chefId : Int&lt;br&gt;&lt;/span&gt;&lt;span style=&quot;background-color: initial;&quot;&gt;- monday : String&lt;br&gt;&lt;/span&gt;-&amp;nbsp;tuesday&amp;nbsp;: String&lt;span style=&quot;background-color: initial;&quot;&gt;&lt;br&gt;&lt;/span&gt;-&amp;nbsp;wednesday&amp;nbsp;: String&lt;span style=&quot;background-color: initial;&quot;&gt;&lt;br&gt;&lt;/span&gt;-&amp;nbsp;thursday&amp;nbsp;: String&lt;span style=&quot;background-color: initial;&quot;&gt;&lt;br&gt;&lt;/span&gt;-&amp;nbsp;friday&amp;nbsp;: String&lt;span style=&quot;background-color: initial;&quot;&gt;&lt;br&gt;&lt;/span&gt;-&amp;nbsp;saturday&amp;nbsp;: String&lt;span style=&quot;background-color: initial;&quot;&gt;&lt;br&gt;&lt;/span&gt;&lt;span style=&quot;background-color: initial;&quot;&gt;- sunday&lt;/span&gt;&amp;nbsp;: String&lt;span style=&quot;background-color: initial;&quot;&gt;&lt;br&gt;&lt;/span&gt;" style="text;strokeColor=none;fillColor=none;align=left;verticalAlign=top;spacingLeft=4;spacingRight=4;overflow=hidden;rotatable=0;points=[[0,0.5],[1,0.5]];portConstraint=eastwest;whiteSpace=wrap;html=1;" vertex="1" parent="DzJdTs3C_Hkm3qkHKdO4-20">
          <mxGeometry y="26" width="160" height="164" as="geometry" />
        </mxCell>
        <mxCell id="DzJdTs3C_Hkm3qkHKdO4-22" value="" style="line;strokeWidth=1;fillColor=none;align=left;verticalAlign=middle;spacingTop=-1;spacingLeft=3;spacingRight=3;rotatable=0;labelPosition=right;points=[];portConstraint=eastwest;strokeColor=inherit;" vertex="1" parent="DzJdTs3C_Hkm3qkHKdO4-20">
          <mxGeometry y="190" width="160" height="8" as="geometry" />
        </mxCell>
        <mxCell id="DzJdTs3C_Hkm3qkHKdO4-23" value="- editAvailability()&lt;br&gt;+ getAvailability()" style="text;strokeColor=none;fillColor=none;align=left;verticalAlign=top;spacingLeft=4;spacingRight=4;overflow=hidden;rotatable=0;points=[[0,0.5],[1,0.5]];portConstraint=eastwest;whiteSpace=wrap;html=1;" vertex="1" parent="DzJdTs3C_Hkm3qkHKdO4-20">
          <mxGeometry y="198" width="160" height="52" as="geometry" />
        </mxCell>
        <mxCell id="DzJdTs3C_Hkm3qkHKdO4-24" value="Post" style="swimlane;fontStyle=1;align=center;verticalAlign=top;childLayout=stackLayout;horizontal=1;startSize=26;horizontalStack=0;resizeParent=1;resizeParentMax=0;resizeLast=0;collapsible=1;marginBottom=0;whiteSpace=wrap;html=1;" vertex="1" parent="WIyWlLk6GJQsqaUBKTNV-1">
          <mxGeometry x="1000" y="310" width="160" height="250" as="geometry" />
        </mxCell>
        <mxCell id="DzJdTs3C_Hkm3qkHKdO4-25" value="&lt;span style=&quot;background-color: initial;&quot;&gt;- id : Int&lt;br&gt;&lt;/span&gt;-&amp;nbsp;chefId&amp;nbsp;: Int&lt;span style=&quot;background-color: initial;&quot;&gt;&lt;br&gt;&lt;/span&gt;-&amp;nbsp;&lt;span style=&quot;background-color: initial;&quot;&gt;media : String&lt;br&gt;&lt;/span&gt;-&amp;nbsp;&lt;span style=&quot;background-color: initial;&quot;&gt;caption&lt;/span&gt;&amp;nbsp;: String&lt;br&gt;-&amp;nbsp;&lt;span style=&quot;background-color: initial;&quot;&gt;likeCount : Int&lt;br&gt;&lt;/span&gt;-&amp;nbsp;postdate&amp;nbsp;: String&lt;span style=&quot;background-color: initial;&quot;&gt;&lt;br&gt;&lt;/span&gt;-&amp;nbsp;createdAt&amp;nbsp;: String&lt;span style=&quot;background-color: initial;&quot;&gt;&lt;br&gt;&lt;/span&gt;-&amp;nbsp;&lt;span style=&quot;background-color: initial;&quot;&gt;updatedAt&lt;/span&gt;&amp;nbsp;: String&lt;span style=&quot;background-color: initial;&quot;&gt;&lt;br&gt;&lt;/span&gt;" style="text;strokeColor=none;fillColor=none;align=left;verticalAlign=top;spacingLeft=4;spacingRight=4;overflow=hidden;rotatable=0;points=[[0,0.5],[1,0.5]];portConstraint=eastwest;whiteSpace=wrap;html=1;" vertex="1" parent="DzJdTs3C_Hkm3qkHKdO4-24">
          <mxGeometry y="26" width="160" height="134" as="geometry" />
        </mxCell>
        <mxCell id="DzJdTs3C_Hkm3qkHKdO4-26" value="" style="line;strokeWidth=1;fillColor=none;align=left;verticalAlign=middle;spacingTop=-1;spacingLeft=3;spacingRight=3;rotatable=0;labelPosition=right;points=[];portConstraint=eastwest;strokeColor=inherit;" vertex="1" parent="DzJdTs3C_Hkm3qkHKdO4-24">
          <mxGeometry y="160" width="160" height="8" as="geometry" />
        </mxCell>
        <mxCell id="DzJdTs3C_Hkm3qkHKdO4-27" value="+ like()&lt;br&gt;- createPost()&lt;br&gt;- deletePost()&lt;br&gt;- editPost()" style="text;strokeColor=none;fillColor=none;align=left;verticalAlign=top;spacingLeft=4;spacingRight=4;overflow=hidden;rotatable=0;points=[[0,0.5],[1,0.5]];portConstraint=eastwest;whiteSpace=wrap;html=1;" vertex="1" parent="DzJdTs3C_Hkm3qkHKdO4-24">
          <mxGeometry y="168" width="160" height="82" as="geometry" />
        </mxCell>
        <mxCell id="DzJdTs3C_Hkm3qkHKdO4-28" value="Chat" style="swimlane;fontStyle=1;align=center;verticalAlign=top;childLayout=stackLayout;horizontal=1;startSize=26;horizontalStack=0;resizeParent=1;resizeParentMax=0;resizeLast=0;collapsible=1;marginBottom=0;whiteSpace=wrap;html=1;" vertex="1" parent="WIyWlLk6GJQsqaUBKTNV-1">
          <mxGeometry x="110" y="350" width="160" height="340" as="geometry" />
        </mxCell>
        <mxCell id="DzJdTs3C_Hkm3qkHKdO4-29" value="&lt;span style=&quot;background-color: initial;&quot;&gt;- messageId : Int&lt;br&gt;&lt;/span&gt;-&amp;nbsp;senderId&amp;nbsp;: Int&lt;span style=&quot;background-color: initial;&quot;&gt;&lt;br&gt;&lt;/span&gt;-&amp;nbsp;ReceiverId&amp;nbsp;: Int&lt;span style=&quot;background-color: initial;&quot;&gt;&lt;br&gt;&lt;/span&gt;-&amp;nbsp;&lt;span style=&quot;background-color: initial;&quot;&gt;media&lt;br&gt;&lt;/span&gt;-&amp;nbsp;&lt;span style=&quot;background-color: initial;&quot;&gt;message&lt;br&gt;&lt;/span&gt;-&amp;nbsp;messageType&amp;nbsp;: Int&lt;span style=&quot;background-color: initial;&quot;&gt;&lt;br&gt;&lt;/span&gt;-&amp;nbsp;deliveryStatus&amp;nbsp;: Int&lt;span style=&quot;background-color: initial;&quot;&gt;&lt;br&gt;&lt;/span&gt;-&amp;nbsp;&lt;span style=&quot;background-color: initial;&quot;&gt;senderAvatar&lt;br&gt;&lt;/span&gt;-&amp;nbsp;&lt;span style=&quot;background-color: initial;&quot;&gt;senderName&lt;br&gt;&lt;/span&gt;-&amp;nbsp;&lt;span style=&quot;background-color: initial;&quot;&gt;receiverAvatar&lt;br&gt;&lt;/span&gt;-&amp;nbsp;&lt;span style=&quot;background-color: initial;&quot;&gt;receiverName&lt;/span&gt;&lt;span style=&quot;background-color: initial;&quot;&gt;&lt;br&gt;&lt;/span&gt;" style="text;strokeColor=none;fillColor=none;align=left;verticalAlign=top;spacingLeft=4;spacingRight=4;overflow=hidden;rotatable=0;points=[[0,0.5],[1,0.5]];portConstraint=eastwest;whiteSpace=wrap;html=1;" vertex="1" parent="DzJdTs3C_Hkm3qkHKdO4-28">
          <mxGeometry y="26" width="160" height="174" as="geometry" />
        </mxCell>
        <mxCell id="DzJdTs3C_Hkm3qkHKdO4-30" value="" style="line;strokeWidth=1;fillColor=none;align=left;verticalAlign=middle;spacingTop=-1;spacingLeft=3;spacingRight=3;rotatable=0;labelPosition=right;points=[];portConstraint=eastwest;strokeColor=inherit;" vertex="1" parent="DzJdTs3C_Hkm3qkHKdO4-28">
          <mxGeometry y="200" width="160" height="8" as="geometry" />
        </mxCell>
        <mxCell id="DzJdTs3C_Hkm3qkHKdO4-31" value="- sendMessage()&lt;br&gt;- getMessage()&lt;br&gt;- changeMessageType()&lt;br&gt;- deleteMessage()&lt;br&gt;- editMessage()&lt;br&gt;- changeDeliveryStatus()" style="text;strokeColor=none;fillColor=none;align=left;verticalAlign=top;spacingLeft=4;spacingRight=4;overflow=hidden;rotatable=0;points=[[0,0.5],[1,0.5]];portConstraint=eastwest;whiteSpace=wrap;html=1;" vertex="1" parent="DzJdTs3C_Hkm3qkHKdO4-28">
          <mxGeometry y="208" width="160" height="132" as="geometry" />
        </mxCell>
        <mxCell id="DzJdTs3C_Hkm3qkHKdO4-32" value="OnlineUser" style="swimlane;fontStyle=1;align=center;verticalAlign=top;childLayout=stackLayout;horizontal=1;startSize=26;horizontalStack=0;resizeParent=1;resizeParentMax=0;resizeLast=0;collapsible=1;marginBottom=0;whiteSpace=wrap;html=1;" vertex="1" parent="WIyWlLk6GJQsqaUBKTNV-1">
          <mxGeometry x="695" y="420" width="160" height="150" as="geometry" />
        </mxCell>
        <mxCell id="DzJdTs3C_Hkm3qkHKdO4-33" value="- userId : Int&lt;br&gt;- socketId : String" style="text;strokeColor=none;fillColor=none;align=left;verticalAlign=top;spacingLeft=4;spacingRight=4;overflow=hidden;rotatable=0;points=[[0,0.5],[1,0.5]];portConstraint=eastwest;whiteSpace=wrap;html=1;" vertex="1" parent="DzJdTs3C_Hkm3qkHKdO4-32">
          <mxGeometry y="26" width="160" height="74" as="geometry" />
        </mxCell>
        <mxCell id="DzJdTs3C_Hkm3qkHKdO4-34" value="" style="line;strokeWidth=1;fillColor=none;align=left;verticalAlign=middle;spacingTop=-1;spacingLeft=3;spacingRight=3;rotatable=0;labelPosition=right;points=[];portConstraint=eastwest;strokeColor=inherit;" vertex="1" parent="DzJdTs3C_Hkm3qkHKdO4-32">
          <mxGeometry y="100" width="160" height="8" as="geometry" />
        </mxCell>
        <mxCell id="DzJdTs3C_Hkm3qkHKdO4-35" value="-removeUser()&lt;br&gt;- addUser()" style="text;strokeColor=none;fillColor=none;align=left;verticalAlign=top;spacingLeft=4;spacingRight=4;overflow=hidden;rotatable=0;points=[[0,0.5],[1,0.5]];portConstraint=eastwest;whiteSpace=wrap;html=1;" vertex="1" parent="DzJdTs3C_Hkm3qkHKdO4-32">
          <mxGeometry y="108" width="160" height="42" as="geometry" />
        </mxCell>
        <mxCell id="DzJdTs3C_Hkm3qkHKdO4-36" value="Booking" style="swimlane;fontStyle=1;align=center;verticalAlign=top;childLayout=stackLayout;horizontal=1;startSize=26;horizontalStack=0;resizeParent=1;resizeParentMax=0;resizeLast=0;collapsible=1;marginBottom=0;whiteSpace=wrap;html=1;" vertex="1" parent="WIyWlLk6GJQsqaUBKTNV-1">
          <mxGeometry x="410" y="680" width="160" height="280" as="geometry" />
        </mxCell>
        <mxCell id="DzJdTs3C_Hkm3qkHKdO4-37" value="&lt;span style=&quot;background-color: initial;&quot;&gt;- id : Int&lt;br&gt;&lt;/span&gt;-&amp;nbsp;userId&amp;nbsp;: Int&lt;span style=&quot;background-color: initial;&quot;&gt;&lt;br&gt;&lt;/span&gt;-&amp;nbsp;ChefId&amp;nbsp;: Int&lt;span style=&quot;background-color: initial;&quot;&gt;&lt;br&gt;&lt;/span&gt;-&amp;nbsp;bookingTime&amp;nbsp;: String&lt;span style=&quot;background-color: initial;&quot;&gt;&lt;br&gt;&lt;/span&gt;-&amp;nbsp;&lt;span style=&quot;background-color: initial;&quot;&gt;bookingDay : String&lt;br&gt;&lt;/span&gt;-&amp;nbsp;bookingStatus&amp;nbsp;: Int&lt;span style=&quot;background-color: initial;&quot;&gt;&lt;br&gt;&lt;/span&gt;-&amp;nbsp;isCompleted&amp;nbsp;: Int&lt;span style=&quot;background-color: initial;&quot;&gt;&lt;br&gt;&lt;/span&gt;-&amp;nbsp;&lt;span style=&quot;background-color: initial;&quot;&gt;bookingPrice : Double&lt;br&gt;&lt;/span&gt;-&amp;nbsp;paymentId&amp;nbsp;: Int&lt;span style=&quot;background-color: initial;&quot;&gt;&lt;br&gt;&lt;/span&gt;- f&lt;span style=&quot;background-color: initial;&quot;&gt;eedbackId&lt;/span&gt;&amp;nbsp;: Int&lt;span style=&quot;background-color: initial;&quot;&gt;&lt;br&gt;&lt;/span&gt;" style="text;strokeColor=none;fillColor=none;align=left;verticalAlign=top;spacingLeft=4;spacingRight=4;overflow=hidden;rotatable=0;points=[[0,0.5],[1,0.5]];portConstraint=eastwest;whiteSpace=wrap;html=1;" vertex="1" parent="DzJdTs3C_Hkm3qkHKdO4-36">
          <mxGeometry y="26" width="160" height="164" as="geometry" />
        </mxCell>
        <mxCell id="DzJdTs3C_Hkm3qkHKdO4-38" value="" style="line;strokeWidth=1;fillColor=none;align=left;verticalAlign=middle;spacingTop=-1;spacingLeft=3;spacingRight=3;rotatable=0;labelPosition=right;points=[];portConstraint=eastwest;strokeColor=inherit;" vertex="1" parent="DzJdTs3C_Hkm3qkHKdO4-36">
          <mxGeometry y="190" width="160" height="8" as="geometry" />
        </mxCell>
        <mxCell id="DzJdTs3C_Hkm3qkHKdO4-39" value="- book()&lt;br&gt;- editBooking()&lt;br&gt;- cancelBooking()&lt;br&gt;- getBookingDetail()&lt;br&gt;" style="text;strokeColor=none;fillColor=none;align=left;verticalAlign=top;spacingLeft=4;spacingRight=4;overflow=hidden;rotatable=0;points=[[0,0.5],[1,0.5]];portConstraint=eastwest;whiteSpace=wrap;html=1;" vertex="1" parent="DzJdTs3C_Hkm3qkHKdO4-36">
          <mxGeometry y="198" width="160" height="82" as="geometry" />
        </mxCell>
        <mxCell id="DzJdTs3C_Hkm3qkHKdO4-40" value="Payment" style="swimlane;fontStyle=1;align=center;verticalAlign=top;childLayout=stackLayout;horizontal=1;startSize=26;horizontalStack=0;resizeParent=1;resizeParentMax=0;resizeLast=0;collapsible=1;marginBottom=0;whiteSpace=wrap;html=1;" vertex="1" parent="WIyWlLk6GJQsqaUBKTNV-1">
          <mxGeometry x="690" y="680" width="160" height="230" as="geometry" />
        </mxCell>
        <mxCell id="DzJdTs3C_Hkm3qkHKdO4-41" value="&lt;span style=&quot;background-color: initial;&quot;&gt;- Id : Int&lt;br&gt;&lt;/span&gt;- paymentType&amp;nbsp;: Int&lt;span style=&quot;background-color: initial;&quot;&gt;&lt;br&gt;&lt;/span&gt;-&amp;nbsp;paymentTime&amp;nbsp;: String&lt;span style=&quot;background-color: initial;&quot;&gt;&lt;br&gt;&lt;/span&gt;-&amp;nbsp;transectionId&amp;nbsp;: Int&lt;span style=&quot;background-color: initial;&quot;&gt;&lt;br&gt;&lt;/span&gt;-&amp;nbsp;bookingId&amp;nbsp;: Int&lt;span style=&quot;background-color: initial;&quot;&gt;&lt;br&gt;&lt;/span&gt;-&amp;nbsp;amount&amp;nbsp;: Double&lt;span style=&quot;background-color: initial;&quot;&gt;&lt;br&gt;&lt;/span&gt;-&amp;nbsp;&lt;span style=&quot;background-color: initial;&quot;&gt;isSuccess&lt;/span&gt;&amp;nbsp;: Int&lt;span style=&quot;background-color: initial;&quot;&gt;&lt;br&gt;&lt;/span&gt;" style="text;strokeColor=none;fillColor=none;align=left;verticalAlign=top;spacingLeft=4;spacingRight=4;overflow=hidden;rotatable=0;points=[[0,0.5],[1,0.5]];portConstraint=eastwest;whiteSpace=wrap;html=1;" vertex="1" parent="DzJdTs3C_Hkm3qkHKdO4-40">
          <mxGeometry y="26" width="160" height="124" as="geometry" />
        </mxCell>
        <mxCell id="DzJdTs3C_Hkm3qkHKdO4-42" value="" style="line;strokeWidth=1;fillColor=none;align=left;verticalAlign=middle;spacingTop=-1;spacingLeft=3;spacingRight=3;rotatable=0;labelPosition=right;points=[];portConstraint=eastwest;strokeColor=inherit;" vertex="1" parent="DzJdTs3C_Hkm3qkHKdO4-40">
          <mxGeometry y="150" width="160" height="8" as="geometry" />
        </mxCell>
        <mxCell id="DzJdTs3C_Hkm3qkHKdO4-43" value="- makePayment()&lt;br&gt;- getPaymentDetail()&lt;br&gt;- changePaymentStatus()&lt;br&gt;" style="text;strokeColor=none;fillColor=none;align=left;verticalAlign=top;spacingLeft=4;spacingRight=4;overflow=hidden;rotatable=0;points=[[0,0.5],[1,0.5]];portConstraint=eastwest;whiteSpace=wrap;html=1;" vertex="1" parent="DzJdTs3C_Hkm3qkHKdO4-40">
          <mxGeometry y="158" width="160" height="72" as="geometry" />
        </mxCell>
        <mxCell id="DzJdTs3C_Hkm3qkHKdO4-44" value="Feedback" style="swimlane;fontStyle=1;align=center;verticalAlign=top;childLayout=stackLayout;horizontal=1;startSize=26;horizontalStack=0;resizeParent=1;resizeParentMax=0;resizeLast=0;collapsible=1;marginBottom=0;whiteSpace=wrap;html=1;" vertex="1" parent="WIyWlLk6GJQsqaUBKTNV-1">
          <mxGeometry x="110" y="730" width="160" height="200" as="geometry" />
        </mxCell>
        <mxCell id="DzJdTs3C_Hkm3qkHKdO4-45" value="- Id : Int&lt;br&gt;&lt;span style=&quot;background-color: initial;&quot;&gt;- message : String&lt;br&gt;&lt;/span&gt;- createdAt&amp;nbsp;: String&lt;span style=&quot;background-color: initial;&quot;&gt;&lt;br&gt;&lt;/span&gt;- updatedAt&amp;nbsp;: String&lt;span style=&quot;background-color: initial;&quot;&gt;&lt;br&gt;&lt;/span&gt;&lt;span style=&quot;background-color: initial;&quot;&gt;- rating : Float&lt;/span&gt;&lt;span style=&quot;background-color: initial;&quot;&gt;&lt;br&gt;&lt;/span&gt;" style="text;strokeColor=none;fillColor=none;align=left;verticalAlign=top;spacingLeft=4;spacingRight=4;overflow=hidden;rotatable=0;points=[[0,0.5],[1,0.5]];portConstraint=eastwest;whiteSpace=wrap;html=1;" vertex="1" parent="DzJdTs3C_Hkm3qkHKdO4-44">
          <mxGeometry y="26" width="160" height="94" as="geometry" />
        </mxCell>
        <mxCell id="DzJdTs3C_Hkm3qkHKdO4-46" value="" style="line;strokeWidth=1;fillColor=none;align=left;verticalAlign=middle;spacingTop=-1;spacingLeft=3;spacingRight=3;rotatable=0;labelPosition=right;points=[];portConstraint=eastwest;strokeColor=inherit;" vertex="1" parent="DzJdTs3C_Hkm3qkHKdO4-44">
          <mxGeometry y="120" width="160" height="8" as="geometry" />
        </mxCell>
        <mxCell id="DzJdTs3C_Hkm3qkHKdO4-47" value="- submitFeedback()&lt;br&gt;- deleteFeedback()&lt;br&gt;- getFeedbackDetail()" style="text;strokeColor=none;fillColor=none;align=left;verticalAlign=top;spacingLeft=4;spacingRight=4;overflow=hidden;rotatable=0;points=[[0,0.5],[1,0.5]];portConstraint=eastwest;whiteSpace=wrap;html=1;" vertex="1" parent="DzJdTs3C_Hkm3qkHKdO4-44">
          <mxGeometry y="128" width="160" height="72" as="geometry" />
        </mxCell>
        <mxCell id="DzJdTs3C_Hkm3qkHKdO4-50" value="" style="endArrow=none;html=1;edgeStyle=orthogonalEdgeStyle;rounded=0;entryX=0.011;entryY=0.824;entryDx=0;entryDy=0;entryPerimeter=0;" edge="1" parent="WIyWlLk6GJQsqaUBKTNV-1" target="DzJdTs3C_Hkm3qkHKdO4-17">
          <mxGeometry relative="1" as="geometry">
            <mxPoint x="570" y="254.28999999999996" as="sourcePoint" />
            <mxPoint x="690" y="254" as="targetPoint" />
            <Array as="points">
              <mxPoint x="633" y="254" />
            </Array>
          </mxGeometry>
        </mxCell>
        <mxCell id="DzJdTs3C_Hkm3qkHKdO4-51" value="1" style="edgeLabel;resizable=0;html=1;align=left;verticalAlign=bottom;" connectable="0" vertex="1" parent="DzJdTs3C_Hkm3qkHKdO4-50">
          <mxGeometry x="-1" relative="1" as="geometry" />
        </mxCell>
        <mxCell id="DzJdTs3C_Hkm3qkHKdO4-52" value="1" style="edgeLabel;resizable=0;html=1;align=right;verticalAlign=bottom;" connectable="0" vertex="1" parent="DzJdTs3C_Hkm3qkHKdO4-50">
          <mxGeometry x="1" relative="1" as="geometry" />
        </mxCell>
        <mxCell id="DzJdTs3C_Hkm3qkHKdO4-53" value="" style="endArrow=none;html=1;edgeStyle=orthogonalEdgeStyle;rounded=0;entryX=0.011;entryY=0.824;entryDx=0;entryDy=0;entryPerimeter=0;exitX=1;exitY=0.5;exitDx=0;exitDy=0;" edge="1" parent="WIyWlLk6GJQsqaUBKTNV-1" source="DzJdTs3C_Hkm3qkHKdO4-16">
          <mxGeometry relative="1" as="geometry">
            <mxPoint x="890" y="254" as="sourcePoint" />
            <mxPoint x="1000" y="254.35" as="targetPoint" />
            <Array as="points">
              <mxPoint x="936" y="255" />
            </Array>
          </mxGeometry>
        </mxCell>
        <mxCell id="DzJdTs3C_Hkm3qkHKdO4-54" value="1" style="edgeLabel;resizable=0;html=1;align=left;verticalAlign=bottom;" connectable="0" vertex="1" parent="DzJdTs3C_Hkm3qkHKdO4-53">
          <mxGeometry x="-1" relative="1" as="geometry" />
        </mxCell>
        <mxCell id="DzJdTs3C_Hkm3qkHKdO4-55" value="1" style="edgeLabel;resizable=0;html=1;align=right;verticalAlign=bottom;" connectable="0" vertex="1" parent="DzJdTs3C_Hkm3qkHKdO4-53">
          <mxGeometry x="1" relative="1" as="geometry" />
        </mxCell>
        <mxCell id="DzJdTs3C_Hkm3qkHKdO4-57" value="" style="endArrow=none;html=1;edgeStyle=orthogonalEdgeStyle;rounded=0;entryX=-0.004;entryY=0.136;entryDx=0;entryDy=0;entryPerimeter=0;" edge="1" parent="WIyWlLk6GJQsqaUBKTNV-1" target="DzJdTs3C_Hkm3qkHKdO4-5">
          <mxGeometry relative="1" as="geometry">
            <mxPoint x="270" y="211.28999999999996" as="sourcePoint" />
            <mxPoint x="397" y="210" as="targetPoint" />
            <Array as="points">
              <mxPoint x="333" y="211" />
              <mxPoint x="409" y="211" />
            </Array>
          </mxGeometry>
        </mxCell>
        <mxCell id="DzJdTs3C_Hkm3qkHKdO4-58" value="1" style="edgeLabel;resizable=0;html=1;align=left;verticalAlign=bottom;" connectable="0" vertex="1" parent="DzJdTs3C_Hkm3qkHKdO4-57">
          <mxGeometry x="-1" relative="1" as="geometry" />
        </mxCell>
        <mxCell id="DzJdTs3C_Hkm3qkHKdO4-59" value="1" style="edgeLabel;resizable=0;html=1;align=right;verticalAlign=bottom;" connectable="0" vertex="1" parent="DzJdTs3C_Hkm3qkHKdO4-57">
          <mxGeometry x="1" relative="1" as="geometry" />
        </mxCell>
        <mxCell id="DzJdTs3C_Hkm3qkHKdO4-60" value="" style="endArrow=none;html=1;edgeStyle=orthogonalEdgeStyle;rounded=0;entryX=-0.004;entryY=0.136;entryDx=0;entryDy=0;entryPerimeter=0;" edge="1" parent="WIyWlLk6GJQsqaUBKTNV-1">
          <mxGeometry relative="1" as="geometry">
            <mxPoint x="270" y="420.28999999999996" as="sourcePoint" />
            <mxPoint x="409" y="420" as="targetPoint" />
            <Array as="points">
              <mxPoint x="333" y="420" />
              <mxPoint x="409" y="420" />
            </Array>
          </mxGeometry>
        </mxCell>
        <mxCell id="DzJdTs3C_Hkm3qkHKdO4-61" value="1..*" style="edgeLabel;resizable=0;html=1;align=left;verticalAlign=bottom;" connectable="0" vertex="1" parent="DzJdTs3C_Hkm3qkHKdO4-60">
          <mxGeometry x="-1" relative="1" as="geometry" />
        </mxCell>
        <mxCell id="DzJdTs3C_Hkm3qkHKdO4-62" value="1..*" style="edgeLabel;resizable=0;html=1;align=right;verticalAlign=bottom;" connectable="0" vertex="1" parent="DzJdTs3C_Hkm3qkHKdO4-60">
          <mxGeometry x="1" relative="1" as="geometry" />
        </mxCell>
        <mxCell id="DzJdTs3C_Hkm3qkHKdO4-63" value="" style="endArrow=none;html=1;edgeStyle=orthogonalEdgeStyle;rounded=0;entryX=-0.002;entryY=0.725;entryDx=0;entryDy=0;entryPerimeter=0;" edge="1" parent="WIyWlLk6GJQsqaUBKTNV-1" target="DzJdTs3C_Hkm3qkHKdO4-33">
          <mxGeometry relative="1" as="geometry">
            <mxPoint x="570" y="475.66999999999996" as="sourcePoint" />
            <mxPoint x="690" y="490" as="targetPoint" />
            <Array as="points">
              <mxPoint x="570" y="480" />
              <mxPoint x="695" y="480" />
            </Array>
          </mxGeometry>
        </mxCell>
        <mxCell id="DzJdTs3C_Hkm3qkHKdO4-64" value="1" style="edgeLabel;resizable=0;html=1;align=left;verticalAlign=bottom;" connectable="0" vertex="1" parent="DzJdTs3C_Hkm3qkHKdO4-63">
          <mxGeometry x="-1" relative="1" as="geometry" />
        </mxCell>
        <mxCell id="DzJdTs3C_Hkm3qkHKdO4-65" value="1" style="edgeLabel;resizable=0;html=1;align=right;verticalAlign=bottom;" connectable="0" vertex="1" parent="DzJdTs3C_Hkm3qkHKdO4-63">
          <mxGeometry x="1" relative="1" as="geometry" />
        </mxCell>
        <mxCell id="DzJdTs3C_Hkm3qkHKdO4-66" value="" style="endArrow=none;html=1;edgeStyle=orthogonalEdgeStyle;rounded=0;entryX=0.011;entryY=0.824;entryDx=0;entryDy=0;entryPerimeter=0;exitX=1;exitY=0.5;exitDx=0;exitDy=0;" edge="1" parent="WIyWlLk6GJQsqaUBKTNV-1">
          <mxGeometry relative="1" as="geometry">
            <mxPoint x="885" y="340.65" as="sourcePoint" />
            <mxPoint x="1000" y="340" as="targetPoint" />
            <Array as="points">
              <mxPoint x="936" y="340.65" />
            </Array>
          </mxGeometry>
        </mxCell>
        <mxCell id="DzJdTs3C_Hkm3qkHKdO4-67" value="1" style="edgeLabel;resizable=0;html=1;align=left;verticalAlign=bottom;" connectable="0" vertex="1" parent="DzJdTs3C_Hkm3qkHKdO4-66">
          <mxGeometry x="-1" relative="1" as="geometry" />
        </mxCell>
        <mxCell id="DzJdTs3C_Hkm3qkHKdO4-68" value="1..*" style="edgeLabel;resizable=0;html=1;align=right;verticalAlign=bottom;" connectable="0" vertex="1" parent="DzJdTs3C_Hkm3qkHKdO4-66">
          <mxGeometry x="1" relative="1" as="geometry" />
        </mxCell>
        <mxCell id="DzJdTs3C_Hkm3qkHKdO4-72" value="" style="endArrow=none;html=1;edgeStyle=orthogonalEdgeStyle;rounded=0;entryX=0.438;entryY=-0.009;entryDx=0;entryDy=0;entryPerimeter=0;exitX=0.435;exitY=1.001;exitDx=0;exitDy=0;exitPerimeter=0;" edge="1" parent="WIyWlLk6GJQsqaUBKTNV-1" source="DzJdTs3C_Hkm3qkHKdO4-7" target="DzJdTs3C_Hkm3qkHKdO4-36">
          <mxGeometry relative="1" as="geometry">
            <mxPoint x="470" y="610.29" as="sourcePoint" />
            <mxPoint x="609" y="610" as="targetPoint" />
            <Array as="points">
              <mxPoint x="480" y="610" />
            </Array>
          </mxGeometry>
        </mxCell>
        <mxCell id="DzJdTs3C_Hkm3qkHKdO4-73" value="1" style="edgeLabel;resizable=0;html=1;align=left;verticalAlign=bottom;" connectable="0" vertex="1" parent="DzJdTs3C_Hkm3qkHKdO4-72">
          <mxGeometry x="-1" relative="1" as="geometry">
            <mxPoint y="20" as="offset" />
          </mxGeometry>
        </mxCell>
        <mxCell id="DzJdTs3C_Hkm3qkHKdO4-74" value="1..*" style="edgeLabel;resizable=0;html=1;align=right;verticalAlign=bottom;" connectable="0" vertex="1" parent="DzJdTs3C_Hkm3qkHKdO4-72">
          <mxGeometry x="1" relative="1" as="geometry" />
        </mxCell>
        <mxCell id="DzJdTs3C_Hkm3qkHKdO4-75" value="" style="endArrow=none;html=1;edgeStyle=orthogonalEdgeStyle;rounded=0;entryX=-0.004;entryY=0.136;entryDx=0;entryDy=0;entryPerimeter=0;" edge="1" parent="WIyWlLk6GJQsqaUBKTNV-1">
          <mxGeometry relative="1" as="geometry">
            <mxPoint x="270" y="890.29" as="sourcePoint" />
            <mxPoint x="409" y="890" as="targetPoint" />
            <Array as="points">
              <mxPoint x="333" y="890" />
              <mxPoint x="409" y="890" />
            </Array>
          </mxGeometry>
        </mxCell>
        <mxCell id="DzJdTs3C_Hkm3qkHKdO4-76" value="1" style="edgeLabel;resizable=0;html=1;align=left;verticalAlign=bottom;" connectable="0" vertex="1" parent="DzJdTs3C_Hkm3qkHKdO4-75">
          <mxGeometry x="-1" relative="1" as="geometry" />
        </mxCell>
        <mxCell id="DzJdTs3C_Hkm3qkHKdO4-77" value="1" style="edgeLabel;resizable=0;html=1;align=right;verticalAlign=bottom;" connectable="0" vertex="1" parent="DzJdTs3C_Hkm3qkHKdO4-75">
          <mxGeometry x="1" relative="1" as="geometry" />
        </mxCell>
        <mxCell id="DzJdTs3C_Hkm3qkHKdO4-78" value="" style="endArrow=none;html=1;edgeStyle=orthogonalEdgeStyle;rounded=0;" edge="1" parent="WIyWlLk6GJQsqaUBKTNV-1">
          <mxGeometry relative="1" as="geometry">
            <mxPoint x="570" y="819.79" as="sourcePoint" />
            <mxPoint x="690" y="820" as="targetPoint" />
            <Array as="points">
              <mxPoint x="633" y="819.5" />
              <mxPoint x="709" y="819.5" />
            </Array>
          </mxGeometry>
        </mxCell>
        <mxCell id="DzJdTs3C_Hkm3qkHKdO4-79" value="1" style="edgeLabel;resizable=0;html=1;align=left;verticalAlign=bottom;" connectable="0" vertex="1" parent="DzJdTs3C_Hkm3qkHKdO4-78">
          <mxGeometry x="-1" relative="1" as="geometry" />
        </mxCell>
        <mxCell id="DzJdTs3C_Hkm3qkHKdO4-80" value="1" style="edgeLabel;resizable=0;html=1;align=right;verticalAlign=bottom;" connectable="0" vertex="1" parent="DzJdTs3C_Hkm3qkHKdO4-78">
          <mxGeometry x="1" relative="1" as="geometry" />
        </mxCell>
      </root>
    </mxGraphModel>
  </diagram>
</mxfile>
